<svg width="21" height="13" viewBox="0 0 21 13" fill="none" xmlns="http://www.w3.org/2000/svg">
<path d="M10.5 12.1545C10.2489 12.1545 10.0059 12.1081 9.77112 12.0153C9.53507 11.9225 9.33856 11.7988 9.18161 11.6442L0.517936 3.10821C0.172645 2.768 0 2.33502 0 1.80925C0 1.28349 0.172645 0.850503 0.517936 0.510302C0.863228 0.1701 1.30269 0 1.83632 0C2.36995 0 2.80942 0.1701 3.15471 0.510302L10.5 7.74732L17.8453 0.510302C18.1906 0.1701 18.63 0 19.1637 0C19.6973 0 20.1368 0.1701 20.4821 0.510302C20.8274 0.850503 21 1.28349 21 1.80925C21 2.33502 20.8274 2.768 20.4821 3.10821L11.8184 11.6442C11.63 11.8297 11.426 11.9609 11.2063 12.0376C10.9865 12.1155 10.7511 12.1545 10.5 12.1545Z" fill="#3D3D3D"/>
</svg>
