<svg width="20" height="20" viewBox="0 0 20 20" fill="none" xmlns="http://www.w3.org/2000/svg">
<path d="M16.5556 13.891C16.278 14.3188 16.304 14.89 16.6647 15.2505L19.6067 18.1919C19.9973 18.5824 19.9971 19.2159 19.6065 19.6065V19.6065C19.2159 19.9971 18.5824 19.9973 18.1919 19.6067L15.2505 16.6647C14.89 16.304 14.3188 16.278 13.891 16.5556C12.4404 17.4972 10.7421 18.0025 9 18C4.032 18 0 13.968 0 9C0 4.032 4.032 0 9 0C13.968 0 18 4.032 18 9C18.0025 10.7421 17.4972 12.4404 16.5556 13.891ZM14.025 13.875C15.2941 12.5699 16.0029 10.8204 16 9C16 5.132 12.867 2 9 2C5.132 2 2 5.132 2 9C2 12.867 5.132 16 9 16C10.8204 16.0029 12.5699 15.2941 13.875 14.025L14.025 13.875Z" fill="#3D3D3D"/>
</svg>
